PathFileType	4	(X/Y/Z)	./resultDataOpenSim/trcMotMarkerGrf/sub06/qtm-01-02.trc
DataRate	CameraRate	NumFrames	NumMarkers	Units	OrigDataRate	OrigDataStartFrame	OrigNumFrames
250.000000	250.000000	6	24	m	250.000000	316	504
Frame#	Time	L.Toe.Tip			R.Toe.Tip			L.Ankle.Lat			R.Ankle.Lat			L.Ankle.Med			R.Ankle.Med			L.Heel			R.Heel			L.Knee.Lat			R.Knee.Lat			L.Knee.Med			R.Knee.Med			L.Thigh.Upper			R.Thigh.Upper			L.ASIS			R.ASIS			V.Sacral			L.Acromium			R.Acromium			C7			L.Elbow			R.Elbow			L.Wrist.Lat			R.Wrist.Lat
		X1	Y1	Z1	X2	Y2	Z2	X3	Y3	Z3	X4	Y4	Z4	X5	Y5	Z5	X6	Y6	Z6	X7	Y7	Z7	X8	Y8	Z8	X9	Y9	Z9	X10	Y10	Z10	X11	Y11	Z11	X12	Y12	Z12	X13	Y13	Z13	X14	Y14	Z14	X15	Y15	Z15	X16	Y16	Z16	X17	Y17	Z17	X18	Y18	Z18	X19	Y19	Z19	X20	Y20	Z20	X21	Y21	Z21	X22	Y22	Z22	X23	Y23	Z23	X24	Y24	Z24

316	1.26	0.29533419	0.089370201	-0.074807208	0.80616488	0.035026844	0.099901365	0.28953223	0.22029899	-0.099041653	0.66843398	0.06013731	0.12305683	0.3135902	0.2223938	-0.016768285	0.68908342	0.083068231	0.036229048	0.24290284	0.27288345	-0.045094595	0.61449194	0.039686935	0.06381466	0.62037978	0.3985856	-0.13275554	0.72806046	0.44544971	0.15375193	0.63191388	0.38362607	-0.011757615	0.69288819	0.43402933	0.030342577	0.58196181	0.79083982	-0.12790607	0.6290199	0.80725377	0.21221026	0.66363269	0.84091478	-0.097915903	0.70547379	0.86045839	0.14450624	0.50227588	0.92582577	0.053323988	0.61288997	1.3388093	-0.13997799	0.61645382	1.3098876	0.22138483	0.53951468	1.365089	0.043040197	0.60510241	1.0148111	-0.21009968	0.51853466	1.0097668	0.28079177	0.7994803	0.86595577	-0.17468393	0.62948567	0.80257511	0.33886856
317	1.264	0.31119	0.089438983	-0.074651766	0.80612194	0.035031167	0.099969378	0.30313033	0.22022985	-0.098527298	0.66835083	0.060182861	0.12320836	0.32725248	0.22259024	-0.016301056	0.68908006	0.083213507	0.03639105	0.25559707	0.27210413	-0.04441386	0.61445687	0.039856818	0.063935439	0.63225775	0.4007819	-0.13283862	0.72975502	0.44556088	0.15414677	0.64475459	0.38558583	-0.011801755	0.69382953	0.43432663	0.030803383	0.58857365	0.79275459	-0.12758046	0.63411415	0.80812041	0.21284509	0.67019369	0.84280793	-0.097391436	0.71108665	0.86164287	0.14547314	0.50819762	0.92729438	0.054150005	0.61846358	1.3405691	-0.1397577	0.62269797	1.3117189	0.22145934	0.54561921	1.3666358	0.043342504	0.60924025	1.0167742	-0.20933747	0.52741101	1.0108124	0.28174286	0.80192464	0.86562102	-0.17511351	0.64141337	0.80521232	0.33930877
318	1.268	0.32716441	0.089309432	-0.074538574	0.80608922	0.035033361	0.10003318	0.31682842	0.21996017	-0.098057491	0.66820453	0.060288442	0.12339183	0.3410353	0.22253965	-0.015836838	0.68909432	0.083376484	0.036551986	0.26844095	0.27102783	-0.043719585	0.61441914	0.04004076	0.064084419	0.64405578	0.40304683	-0.13286474	0.7313957	0.44565351	0.15451341	0.65749066	0.38760631	-0.011823369	0.6948167	0.43471496	0.03117767	0.59513381	0.79464695	-0.12702493	0.63908906	0.80894894	0.21342313	0.67679637	0.84472577	-0.096711928	0.71664331	0.86282648	0.14645784	0.51406475	0.92875033	0.054983974	0.62403297	1.3423204	-0.13953166	0.62891496	1.313553	0.22152455	0.55171356	1.3681611	0.043632698	0.61336221	1.0187513	-0.2085574	0.5360607	1.0118653	0.28263735	0.80431821	0.86533235	-0.17557894	0.65336062	0.80795565	0.33971798
319	1.272	0.34326006	0.088990235	-0.074469404	0.80606867	0.035032598	0.10009163	0.33059681	0.21946892	-0.097615145	0.66805768	0.060440479	0.12357987	0.35493839	0.22224715	-0.01538849	0.68913745	0.083561988	0.036705287	0.28140913	0.26964621	-0.04300466	0.61437536	0.040238515	0.064274626	0.65581156	0.40539297	-0.13287894	0.73294865	0.44570388	0.15484689	0.67009394	0.38974124	-0.011787972	0.696044	0.43514998	0.03139887	0.60164745	0.79649783	-0.12635375	0.64398747	0.80974267	0.21396599	0.68325644	0.84661138	-0.096020816	0.72215542	0.86401615	0.14745708	0.51986692	0.93018858	0.055827604	0.62960272	1.3440515	-0.13929856	0.63511876	1.3153822	0.22158679	0.55780187	1.3696602	0.043920875	0.61745333	1.0207346	-0.20779763	0.54442262	1.0129346	0.28345933	0.80666496	0.86509112	-0.17609133	0.66532162	0.81081069	0.34009692
320	1.276	0.35948497	0.088495188	-0.074450627	0.80605864	0.035029762	0.10014279	0.34442026	0.21872981	-0.097165288	0.66797126	0.06060737	0.12374602	0.36895964	0.22171672	-0.014975918	0.6892011	0.083776387	0.036859445	0.29447331	0.2679668	-0.042266718	0.61432581	0.040452162	0.064503319	0.66751084	0.40782217	-0.13290717	0.73442395	0.44573669	0.1551707	0.68249333	0.39204292	-0.01166709	0.6974916	0.43559768	0.031482369	0.60819446	0.79830445	-0.12584269	0.64894127	0.81053821	0.21455988	0.68955468	0.84844123	-0.095395696	0.72763809	0.86522055	0.14846074	0.52558034	0.93160043	0.056675097	0.63517319	1.3457552	-0.13905653	0.64131857	1.3172017	0.22164814	0.56387865	1.3711262	0.04420491	0.62149841	1.0227178	-0.20706424	0.55257695	1.0140348	0.28423683	0.80897187	0.86489371	-0.17665591	0.67728345	0.81376624	0.34043975
321	1.28	0.37585213	0.087841392	-0.074486107	0.80605649	0.0350272	0.10018479	0.35830973	0.21774283	-0.096683641	0.66794879	0.060756579	0.12388808	0.38308137	0.22096111	-0.014598993	0.68926718	0.084023938	0.037030105	0.30761008	0.26600687	-0.041493706	0.61428455	0.040685866	0.064733813	0.67909034	0.41030774	-0.13292072	0.73585797	0.44579373	0.15551609	0.69463852	0.39452468	-0.011460305	0.69891503	0.43605313	0.0315099	0.61484876	0.8000831	-0.12562914	0.65400764	0.81136181	0.2152355	0.69577642	0.85022368	-0.094824552	0.73309795	0.86644267	0.1494524	0.5311779	0.9329728	0.057500315	0.64074794	1.3474275	-0.13880357	0.64751383	1.3190062	0.22170517	0.56993739	1.3725548	0.044479307	0.62549143	1.0246914	-0.2063521	0.56066858	1.0151619	0.28501632	0.81125275	0.86473272	-0.17726833	0.68923672	0.81680868	0.34074105
